<svg width="45" height="45" viewBox="0 0 45 45" fill="none" xmlns="http://www.w3.org/2000/svg">
<rect width="45" height="45" rx="22.5" fill="black"/>
<path d="M27.3654 16.4153C25.4754 16.4153 24.6766 17.3172 23.3604 17.3172C22.0108 17.3172 20.9815 16.4218 19.3437 16.4218C17.7405 16.4218 16.031 17.4006 14.9454 19.0679C13.421 21.4192 13.6798 25.8475 16.1487 29.62C17.0318 30.9704 18.2112 32.485 19.758 32.5014H19.7862C21.1305 32.5014 21.5299 31.6211 23.3801 31.6108H23.4082C25.2307 31.6108 25.5963 32.4962 26.9351 32.4962H26.9632C28.5101 32.4798 29.7527 30.8017 30.6358 29.4564C31.2715 28.4889 31.5077 28.0033 31.9952 26.9087C28.4238 25.5531 27.8501 20.4901 31.3821 18.549C30.304 17.199 28.789 16.4172 27.3607 16.4172L27.3654 16.4153Z" fill="white"/>
<path d="M26.9491 11.5C25.8241 11.5764 24.5116 12.2927 23.7428 13.2278C23.0453 14.0753 22.4716 15.3325 22.6966 16.5517H22.7866C23.9847 16.5517 25.211 15.8303 25.9272 14.9059C26.6172 14.0261 27.1403 12.7792 26.9491 11.5Z" fill="white"/>
</svg>
