<svg width="96" height="96" viewBox="0 0 96 96" fill="none" xmlns="http://www.w3.org/2000/svg">
<path fill-rule="evenodd" clip-rule="evenodd" d="M66 34.5C67.6569 34.5 69 35.8431 69 37.5V82.5L69 82.509C68.9917 85.2888 67.8837 87.9524 65.9181 89.9181C63.9524 91.8837 61.2888 92.9917 58.509 93L58.5 93H25.5L25.491 93C22.7112 92.9917 20.0476 91.8837 18.0819 89.9181C16.1163 87.9524 15.0083 85.2888 15 82.509L15 82.5V42C15 40.3431 16.3431 39 18 39C19.6569 39 21 40.3431 21 42V82.495C21.0046 83.6883 21.4807 84.8315 22.3246 85.6754C23.1686 86.5194 24.312 86.9955 25.5056 87H58.4944C59.688 86.9955 60.8314 86.5194 61.6754 85.6754C62.5193 84.8316 62.9953 83.6884 63 82.4952V37.5C63 35.8431 64.3431 34.5 66 34.5Z" fill="#E8BA00"/>
<path fill-rule="evenodd" clip-rule="evenodd" d="M63 42C63 40.3431 64.3431 39 66 39H73.5043L73.5085 39C77.0836 39.0102 80.5093 40.4349 83.0372 42.9628C85.5651 45.4907 86.9898 48.9164 87 52.4915L87 52.4957V67.5043L87 67.5085C86.9898 71.0836 85.5651 74.5093 83.0372 77.0372C80.5093 79.5651 77.0836 80.9898 73.5085 81L73.5043 81H66C64.3431 81 63 79.6569 63 78C63 76.3431 64.3431 75 66 75H73.4952C75.4835 74.9934 77.3885 74.2006 78.7946 72.7946C80.2006 71.3885 80.9934 69.4835 81 67.4952V52.5048C80.9934 50.5165 80.2006 48.6115 78.7946 47.2054C77.3886 45.7995 75.4836 45.0067 73.4954 45H66C64.3431 45 63 43.6569 63 42Z" fill="#E8BA00"/>
<path fill-rule="evenodd" clip-rule="evenodd" d="M42 45C43.6569 45 45 46.3431 45 48V78C45 79.6569 43.6569 81 42 81C40.3431 81 39 79.6569 39 78V48C39 46.3431 40.3431 45 42 45Z" fill="#E8BA00"/>
<path fill-rule="evenodd" clip-rule="evenodd" d="M54 45C55.6569 45 57 46.3431 57 48V78C57 79.6569 55.6569 81 54 81C52.3431 81 51 79.6569 51 78V48C51 46.3431 52.3431 45 54 45Z" fill="#E8BA00"/>
<path fill-rule="evenodd" clip-rule="evenodd" d="M30 45C31.6569 45 33 46.3431 33 48V78C33 79.6569 31.6569 81 30 81C28.3431 81 27 79.6569 27 78V48C27 46.3431 28.3431 45 30 45Z" fill="#E8BA00"/>
<path fill-rule="evenodd" clip-rule="evenodd" d="M57 21C57 19.3431 58.3431 18 60 18C63.1826 18 66.2348 19.2643 68.4853 21.5147C70.7357 23.7652 72 26.8174 72 30C72 33.1826 70.7357 36.2348 68.4853 38.4853C66.2348 40.7357 63.1826 42 60 42C58.2477 42 56.4651 41.5282 54.929 40.8658C53.8076 40.3823 52.7055 39.7489 51.7497 39H31.9121C29.5596 43.1458 25.3083 45 21 45C17.8174 45 14.7652 43.7357 12.5147 41.4853C10.2643 39.2348 9 36.1826 9 33C9 29.8174 10.2643 26.7652 12.5147 24.5147C14.7652 22.2643 17.8174 21 21 21C21.042 21 21.084 21.0009 21.126 21.0026C23.4671 21.101 25.7281 21.8837 27.629 23.2537C28.9732 24.2224 29.2775 26.0974 28.3088 27.4415C27.3401 28.7857 25.4651 29.09 24.121 28.1213C23.1889 27.4495 22.0834 27.0606 20.937 27.0003C19.3684 27.0168 17.8677 27.647 16.7574 28.7574C15.6321 29.8826 15 31.4087 15 33C15 34.5913 15.6321 36.1174 16.7574 37.2426C17.8826 38.3679 19.4087 39 21 39C23.9344 39 26.1938 37.6884 27.1806 34.9748C27.6117 33.7892 28.7385 33 30 33H52.875C53.6707 33 54.4337 33.3161 54.9963 33.8787C55.4883 34.3707 56.3077 34.9263 57.3047 35.3562C58.3027 35.7865 59.2679 36 60 36C61.5913 36 63.1174 35.3679 64.2426 34.2426C65.3679 33.1174 66 31.5913 66 30C66 28.4087 65.3679 26.8826 64.2426 25.7574C63.1174 24.6321 61.5913 24 60 24C58.3431 24 57 22.6569 57 21Z" fill="#E8BA00"/>
<path fill-rule="evenodd" clip-rule="evenodd" d="M23.0181 15.0324C22.401 14.9611 21.7759 15.0184 21.1821 15.2006C20.5882 15.3828 20.0386 15.6859 19.5676 16.091C19.0967 16.496 18.7147 16.9942 18.4458 17.554C18.1768 18.1139 18.0266 18.7234 18.0047 19.3442C17.9829 19.965 18.0897 20.5835 18.3186 21.161C18.5475 21.7384 18.8935 22.2622 19.3348 22.6994C20.5117 23.8655 20.5206 25.765 19.3544 26.942C18.1883 28.119 16.2888 28.1278 15.1118 26.9616C14.0822 25.9416 13.275 24.7194 12.7409 23.372C12.2068 22.0247 11.9574 20.5813 12.0085 19.1329C12.0595 17.6845 12.4099 16.2623 13.0375 14.9558C13.6651 13.6494 14.5564 12.4871 15.6552 11.542C16.754 10.597 18.0366 9.8896 19.4222 9.46449C20.8078 9.03939 22.2664 8.90575 23.7062 9.07198C25.146 9.23821 26.5358 9.70071 27.7881 10.4304C29.0403 11.16 30.128 12.141 30.9826 13.3116L30.9846 13.3144L30.9865 13.3171L28.5595 15.0805C30.9865 13.3171 30.9867 13.3174 30.987 13.3176L30.9907 13.3229L30.997 13.3316C31.0019 13.3384 31.0082 13.3471 31.0157 13.3576C31.0308 13.3787 31.0511 13.4073 31.0758 13.4424C31.1252 13.5127 31.1929 13.6103 31.2728 13.729C31.4309 13.9637 31.6461 14.2945 31.8661 14.6688C32.0805 15.0337 32.3305 15.4924 32.5355 15.9748C32.7056 16.375 32.9995 17.1363 32.9995 17.9999C32.9995 19.6567 31.6564 20.9999 29.9995 20.9999C28.4547 20.9999 27.1826 19.8322 27.0176 18.3313C27.0163 18.3282 27.015 18.325 27.0136 18.3217C26.9486 18.1688 26.8386 17.9562 26.693 17.7085C26.553 17.4701 26.4082 17.2469 26.2963 17.0807C26.2412 16.999 26.1964 16.9344 26.167 16.8926C26.1524 16.8717 26.1417 16.8567 26.1357 16.8484L26.1321 16.8434C25.7665 16.3443 25.302 15.926 24.7674 15.6145C24.2307 15.3018 23.6351 15.1036 23.0181 15.0324ZM27.0545 18.4307C27.054 18.4305 27.0503 18.4202 27.045 18.4007C27.0524 18.4213 27.0551 18.431 27.0545 18.4307Z" fill="#E8BA00"/>
<path fill-rule="evenodd" clip-rule="evenodd" d="M40.5007 9C36.1371 9 32.3618 10.9627 29.5988 14.1117C28.5061 15.3571 26.6106 15.4809 25.3652 14.3882C24.1198 13.2954 23.996 11.4 25.0887 10.1546C28.847 5.87108 34.203 3 40.5007 3C52.0282 3 61.1247 12.4251 61.1257 23.8501C61.1264 25.1579 61.0039 26.4628 60.7598 27.7475C60.4505 29.3753 58.8802 30.4441 57.2525 30.1348C55.6248 29.8255 54.556 28.2552 54.8653 26.6275C55.039 25.7131 55.1262 24.7844 55.1257 23.8536V23.8519C55.1257 15.6389 48.6151 9 40.5007 9Z" fill="#E8BA00"/>
</svg>
