<svg width="45" height="45" viewBox="0 0 45 45" fill="none" xmlns="http://www.w3.org/2000/svg">
<rect width="45" height="45" rx="22.5" fill="#1476F1"/>
<path fill-rule="evenodd" clip-rule="evenodd" d="M33.5 22.0632C33.5 16.2648 28.7984 11.5632 23 11.5632C17.2016 11.5632 12.5 16.2648 12.5 22.0632C12.5 27.3039 16.3391 31.6478 21.3594 32.4362V25.0993H18.6927V22.0632H21.3594V19.75C21.3594 17.1189 22.9273 15.6643 25.3255 15.6643C26.4744 15.6643 27.6763 15.8696 27.6763 15.8696V18.4539H26.3516C25.048 18.4539 24.6402 19.2629 24.6402 20.0945V22.0632H27.552L27.087 25.0993H24.6406V32.4371C29.6609 31.6492 33.5 27.3053 33.5 22.0632Z" fill="white"/>
</svg>
