<svg width="45" height="45" viewBox="0 0 45 45" fill="none" xmlns="http://www.w3.org/2000/svg">
<rect x="0.5" y="0.5" width="44" height="44" rx="22" stroke="#D9D9D9"/>
<g clip-path="url(#clip0_0_1)">
<path d="M34.4752 22.2668C34.4752 21.2797 34.3958 20.5605 34.2219 19.8132H22.9771V24.2668H29.5775C29.4442 25.3745 28.7261 27.0402 27.1286 28.1592L27.1067 28.3083L30.6621 31.0682L30.9085 31.0927C33.1713 29.0003 34.4752 25.9202 34.4752 22.2668Z" fill="#4285F4"/>
<path d="M22.9766 34.0003C26.2104 34.0003 28.9248 32.9337 30.9081 31.0933L27.1282 28.1603C26.1169 28.8675 24.7592 29.3593 22.9764 29.3593C19.8088 29.3593 17.1206 27.2661 16.1625 24.3726L16.0218 24.3845L12.3247 27.252L12.2759 27.3868C14.2468 31.3069 18.2931 34.0003 22.9766 34.0003Z" fill="#34A853"/>
<path d="M16.1641 24.3741C15.9021 23.6102 15.7672 22.8083 15.7648 22.0005C15.7648 21.1737 15.9114 20.374 16.151 19.6269L16.1439 19.4676L12.4004 16.5549L12.2783 16.6134C11.4381 18.2842 11.0005 20.1291 11.0005 22C11.0005 23.8709 11.4381 25.7158 12.2783 27.3866L16.1641 24.3741Z" fill="#FBBC05"/>
<path d="M22.9769 14.6403C25.2255 14.6403 26.7426 15.6134 27.6081 16.4266L30.9877 13.1204C28.9118 11.1873 26.2107 10 22.9771 10C18.2921 10 14.247 12.6934 12.2778 16.6143L16.15 19.627C17.1221 16.7334 19.8102 14.6403 22.9769 14.6403Z" fill="#EB4335"/>
</g>
<defs>
<clipPath id="clip0_0_1">
<rect width="23.475" height="24" fill="white" transform="translate(11 10)"/>
</clipPath>
</defs>
</svg>
