<svg width="44" height="44" viewBox="0 0 44 44" fill="none" xmlns="http://www.w3.org/2000/svg">
<circle cx="22" cy="22" r="22" fill="#323232"/>
<path d="M27 12H17C14.2386 12 12 14.2386 12 17V27C12 29.7614 14.2386 32 17 32H27C29.7614 32 32 29.7614 32 27V17C32 14.2386 29.7614 12 27 12Z" stroke="#FFCC00" stroke-width="2" stroke-linecap="round" stroke-linejoin="round"/>
<path d="M26 21.3698C26.1234 22.2021 25.9813 23.052 25.5938 23.7988C25.2063 24.5456 24.5931 25.1512 23.8416 25.5295C23.0901 25.9077 22.2384 26.0394 21.4078 25.9057C20.5771 25.7721 19.8098 25.3799 19.2148 24.785C18.6199 24.1901 18.2277 23.4227 18.0941 22.592C17.9604 21.7614 18.0921 20.9097 18.4703 20.1582C18.8486 19.4067 19.4542 18.7936 20.201 18.4061C20.9478 18.0186 21.7978 17.8764 22.63 17.9998C23.4789 18.1257 24.2648 18.5213 24.8717 19.1281C25.4785 19.735 25.8741 20.5209 26 21.3698Z" stroke="#FFCC00" stroke-width="2" stroke-linecap="round" stroke-linejoin="round"/>
<path d="M27.5 16.5H27.51" stroke="#FFCC00" stroke-width="2" stroke-linecap="round" stroke-linejoin="round"/>
</svg>
