<svg xmlns="http://www.w3.org/2000/svg" width="30" height="30" viewBox="0 0 30 30" fill="none">
  <path fill-rule="evenodd" clip-rule="evenodd" d="M2.8125 15C2.8125 8.2713 8.2713 2.8125 15 2.8125C21.7287 2.8125 27.1875 8.2713 27.1875 15C27.1875 21.7287 21.7287 27.1875 15 27.1875C8.2713 27.1875 2.8125 21.7287 2.8125 15ZM15 4.6875C9.30683 4.6875 4.6875 9.30683 4.6875 15C4.6875 20.6932 9.30683 25.3125 15 25.3125C20.6932 25.3125 25.3125 20.6932 25.3125 15C25.3125 9.30683 20.6932 4.6875 15 4.6875Z" fill="#FBC901"/>
  <path fill-rule="evenodd" clip-rule="evenodd" d="M15 9.375C15.5178 9.375 15.9375 9.79473 15.9375 10.3125V19.6875C15.9375 20.2053 15.5178 20.625 15 20.625C14.4822 20.625 14.0625 20.2053 14.0625 19.6875V10.3125C14.0625 9.79473 14.4822 9.375 15 9.375Z" fill="#FBC901"/>
  <path fill-rule="evenodd" clip-rule="evenodd" d="M9.375 15C9.375 14.4822 9.79473 14.0625 10.3125 14.0625H19.6875C20.2053 14.0625 20.625 14.4822 20.625 15C20.625 15.5178 20.2053 15.9375 19.6875 15.9375H10.3125C9.79473 15.9375 9.375 15.5178 9.375 15Z" fill="#FBC901"/>
</svg>