<svg width="34" height="34" viewBox="0 0 34 34" fill="none" xmlns="http://www.w3.org/2000/svg">
<path d="M12.7497 31.1666C13.5321 31.1666 14.1663 30.5323 14.1663 29.7499C14.1663 28.9675 13.5321 28.3333 12.7497 28.3333C11.9673 28.3333 11.333 28.9675 11.333 29.7499C11.333 30.5323 11.9673 31.1666 12.7497 31.1666Z" stroke="#FBC901" stroke-width="2" stroke-linecap="round" stroke-linejoin="round"/>
<path d="M28.3337 31.1666C29.1161 31.1666 29.7503 30.5323 29.7503 29.7499C29.7503 28.9675 29.1161 28.3333 28.3337 28.3333C27.5513 28.3333 26.917 28.9675 26.917 29.7499C26.917 30.5323 27.5513 31.1666 28.3337 31.1666Z" stroke="#FBC901" stroke-width="2" stroke-linecap="round" stroke-linejoin="round"/>
<path d="M1.41699 1.41675H7.08366L10.8803 20.3859C11.0099 21.0381 11.3647 21.624 11.8827 22.041C12.4007 22.458 13.0488 22.6795 13.7137 22.6667H27.4837C28.1485 22.6795 28.7966 22.458 29.3146 22.041C29.8326 21.624 30.1874 21.0381 30.317 20.3859L32.5837 8.50008H8.50033" stroke="#FBC901" stroke-width="2" stroke-linecap="round" stroke-linejoin="round"/>
</svg>
