<svg xmlns="http://www.w3.org/2000/svg" width="24" height="24" viewBox="0 0 24 24" fill="none">
  <path fill-rule="evenodd" clip-rule="evenodd" d="M9.75 8.625C9.75 8.21079 10.0858 7.875 10.5 7.875H16.5C16.9142 7.875 17.25 8.21079 17.25 8.625C17.25 9.03921 16.9142 9.375 16.5 9.375H10.5C10.0858 9.375 9.75 9.03921 9.75 8.625Z" fill="#030303"/>
  <path fill-rule="evenodd" clip-rule="evenodd" d="M9.75 12C9.75 11.5858 10.0858 11.25 10.5 11.25H16.5C16.9142 11.25 17.25 11.5858 17.25 12C17.25 12.4142 16.9142 12.75 16.5 12.75H10.5C10.0858 12.75 9.75 12.4142 9.75 12Z" fill="#030303"/>
  <path fill-rule="evenodd" clip-rule="evenodd" d="M9.75 15.3281C9.75 14.9139 10.0858 14.5781 10.5 14.5781H16.5C16.9142 14.5781 17.25 14.9139 17.25 15.3281C17.25 15.7423 16.9142 16.0781 16.5 16.0781H10.5C10.0858 16.0781 9.75 15.7423 9.75 15.3281Z" fill="#030303"/>
  <path fill-rule="evenodd" clip-rule="evenodd" d="M2.25 12.0938C2.25 6.71079 6.61704 2.34375 12 2.34375C17.383 2.34375 21.75 6.71079 21.75 12.0938C21.75 17.4767 17.383 21.8438 12 21.8438C6.61704 21.8438 2.25 17.4767 2.25 12.0938ZM12 3.84375C7.44546 3.84375 3.75 7.53921 3.75 12.0938C3.75 16.6483 7.44546 20.3438 12 20.3438C16.5545 20.3438 20.25 16.6483 20.25 12.0938C20.25 7.53921 16.5545 3.84375 12 3.84375Z" fill="#030303"/>
  <path fill-rule="evenodd" clip-rule="evenodd" d="M7.875 9C8.08211 9 8.25 8.83211 8.25 8.625C8.25 8.41789 8.08211 8.25 7.875 8.25C7.66789 8.25 7.5 8.41789 7.5 8.625C7.5 8.83211 7.66789 9 7.875 9ZM6.75 8.625C6.75 8.00368 7.25368 7.5 7.875 7.5C8.49632 7.5 9 8.00368 9 8.625C9 9.24632 8.49632 9.75 7.875 9.75C7.25368 9.75 6.75 9.24632 6.75 8.625Z" fill="#030303"/>
  <path fill-rule="evenodd" clip-rule="evenodd" d="M7.875 12.4219C8.08211 12.4219 8.25 12.254 8.25 12.0469C8.25 11.8398 8.08211 11.6719 7.875 11.6719C7.66789 11.6719 7.5 11.8398 7.5 12.0469C7.5 12.254 7.66789 12.4219 7.875 12.4219ZM6.75 12.0469C6.75 11.4256 7.25368 10.9219 7.875 10.9219C8.49632 10.9219 9 11.4256 9 12.0469C9 12.6682 8.49632 13.1719 7.875 13.1719C7.25368 13.1719 6.75 12.6682 6.75 12.0469Z" fill="#030303"/>
  <path fill-rule="evenodd" clip-rule="evenodd" d="M7.875 15.75C8.08211 15.75 8.25 15.5821 8.25 15.375C8.25 15.1679 8.08211 15 7.875 15C7.66789 15 7.5 15.1679 7.5 15.375C7.5 15.5821 7.66789 15.75 7.875 15.75ZM6.75 15.375C6.75 14.7537 7.25368 14.25 7.875 14.25C8.49632 14.25 9 14.7537 9 15.375C9 15.9963 8.49632 16.5 7.875 16.5C7.25368 16.5 6.75 15.9963 6.75 15.375Z" fill="#030303"/>
</svg>