<svg width="24" height="24" viewBox="0 0 24 24" fill="none" xmlns="http://www.w3.org/2000/svg">
<g clip-path="url(#clip0_843_1428)">
<path d="M7.57734 21.75C7.03828 21.75 6.50391 21.5484 6.09609 21.1406L0.611719 15.6562C-0.203906 14.8359 -0.203906 13.5047 0.611719 12.6891L12.1289 1.16719C12.4008 0.9 12.757 0.75 13.1367 0.75H18.9117C19.4695 0.754688 19.9945 0.975 20.3883 1.36875C20.782 1.76719 20.9977 2.29219 20.993 2.85V8.61094C20.993 8.99062 20.8477 9.34688 20.5805 9.61875L9.06328 21.1359C8.65547 21.5437 8.11641 21.75 7.57734 21.75ZM13.1695 2.25L1.67109 13.7438C1.44141 13.9781 1.44141 14.3578 1.67109 14.5922L7.15547 20.0766C7.38984 20.3062 7.76953 20.3062 8.00391 20.0766L19.4977 8.5875V2.85C19.4977 2.51719 19.2352 2.25 18.907 2.25H18.9023H13.1695Z" fill="#FDCB01"/>
<path d="M16.498 6.75C15.6684 6.75 14.998 6.07969 14.998 5.25C14.998 4.42031 15.6684 3.75 16.498 3.75C17.3277 3.75 17.998 4.42031 17.998 5.25C17.998 6.07969 17.3277 6.75 16.498 6.75Z" fill="#FDCB01"/>
<path d="M10.7789 23.25C10.5867 23.25 10.3945 23.175 10.2492 23.0297C9.95859 22.7391 9.95859 22.2609 10.2492 21.9703L22.4977 9.72187V3.75C22.4977 3.3375 22.8352 3 23.2477 3C23.6602 3 23.9977 3.3375 23.9977 3.75V9.74531C24.0023 10.1203 23.857 10.4813 23.5945 10.7484L11.3133 23.0297C11.1633 23.175 10.9711 23.25 10.7789 23.25Z" fill="#FDCB01"/>
</g>
<defs>
<clipPath id="clip0_843_1428">
<rect width="24" height="24" fill="white"/>
</clipPath>
</defs>
</svg>
