<svg width="16" height="18" viewBox="0 0 16 18" fill="none" xmlns="http://www.w3.org/2000/svg">
<path d="M8.00001 10.5C5.51563 10.5 3.59845 9.73594 2.30001 8.23125C0.115634 5.70469 0.500009 1.98281 0.565634 1.44844V0.75C0.565634 0.3375 0.903134 0 1.31563 0H14.6797C15.0922 0 15.4297 0.3375 15.4297 0.75V1.44844C15.5 1.98281 15.8797 5.7 13.7 8.23125C12.4016 9.73594 10.4844 10.5 8.00001 10.5ZM2.06563 1.5C2.06563 1.5375 2.06095 1.575 2.05626 1.60781C2.05157 1.64063 1.57813 5.10938 3.43438 7.25625C4.43751 8.41406 5.97032 9 7.99532 9C10.0203 9 11.5531 8.41406 12.5563 7.25625C14.4219 5.11406 13.9438 1.64063 13.9391 1.60781C13.9344 1.57031 13.9297 1.5375 13.9297 1.5H2.06563Z" fill="#FFB800"/>
<path d="M8.75 9.75H7.25V17.25H8.75V9.75Z" fill="#FFB800"/>
<path d="M12.5 18H3.5C3.0875 18 2.75 17.6625 2.75 17.25C2.75 16.8375 3.0875 16.5 3.5 16.5H12.5C12.9125 16.5 13.25 16.8375 13.25 17.25C13.25 17.6625 12.9125 18 12.5 18Z" fill="#FFB800"/>
<path d="M14.75 3.75H1.25V5.25H14.75V3.75Z" fill="#FFB800"/>
</svg>
