<svg xmlns="http://www.w3.org/2000/svg" width="78" height="40" viewBox="0 0 78 40" fill="none">
<path fill-rule="evenodd" clip-rule="evenodd" d="M0 39.0788H77.2207L68.1802 23.5301H66.2169L66.5461 24.2391L66.2287 24.9231L59.122 11.4325L53.9375 18.7488L57.1646 26.9875L41.3878 0L33.8461 15.9189L30.5074 13.2773L25.1524 23.9756L26.475 29.6291L18.9863 15.8624L13.2845 25.5756L9.94576 22.8085L0 39.0913V39.0788ZM10.0751 26.3349L7.4123 32.0072L12.1912 26.0274L10.0751 26.3349ZM19.6035 17.7574L18.7688 21.0453V26.0274L22.1957 27.5647L20.497 34.881L25.5639 29.6228L19.6035 17.7574ZM26.9453 29.6228C26.9453 29.6228 45.861 32.1453 40.4179 36.1673L34.3399 34.172C34.3399 34.172 38.0549 32.6661 26.9394 29.6228H26.9453ZM52.0213 33.3437L44.4209 35.772H52.7443L54.8192 32.1766L59.6569 29.6542L58.305 28.6691L50.9338 33.0049L52.0271 33.3437H52.0213ZM47.6186 28.2738L51.3335 19.3637L43.7331 6.63863L43.6156 14.7832L46.7545 20.1292L47.6186 28.2738ZM60.0272 14.6577L59.9097 20.4053L61.7495 23.5677L62.0963 28.4244L64.4887 22.9842L60.0272 14.6577Z" fill="#090909"/>
</svg>